<svg width="1907" height="228" viewBox="0 0 1907 228" fill="none" xmlns="http://www.w3.org/2000/svg">
  <path d="M134.862 226.404C114.462 222.704 95.762 209.504 83.562 190.104C81.462 186.904 80.062 185.604 79.062 186.004C74.362 187.904 58.062 191.404 49.762 192.304C33.762 194.104 15.062 193.304 3.86198 190.304L0.0619832 189.304V183.704C0.0619832 177.404 -1.73802 177.704 14.062 180.904C25.762 183.304 44.562 182.504 58.762 179.004C68.062 176.704 76.062 174.004 76.062 173.204C76.062 173.004 75.362 169.304 74.562 164.904C71.862 149.704 73.162 125.204 77.562 109.904C78.362 107.204 80.162 98.8041 81.562 91.4041C85.762 69.0041 89.762 58.2041 99.162 44.2041C104.562 36.2041 117.762 23.0041 125.662 17.6041C135.562 11.0041 147.462 5.40408 157.862 2.70408C166.262 0.504085 169.662 0.104085 184.062 0.00408467C203.462 -0.0959153 211.262 1.60408 225.862 9.10408C230.662 11.6041 238.662 14.6041 243.662 15.9041C248.662 17.2041 257.062 20.0041 262.362 22.2041C288.362 32.9041 303.962 46.1041 313.262 65.4041C316.662 72.4041 318.762 75.2041 325.062 81.1041C333.962 89.4041 337.862 95.0041 341.662 104.904C344.062 111.204 344.462 113.604 344.862 127.704C345.362 145.404 344.162 152.704 338.962 164.304L336.062 170.704L364.762 170.104C401.162 169.304 424.662 166.804 457.562 160.304C465.862 158.604 476.362 156.204 481.062 154.904C489.062 152.704 503.562 147.204 504.762 146.004C505.062 145.704 504.562 141.804 503.562 137.204C499.362 117.204 500.862 92.3041 507.162 75.0041C517.662 46.3041 541.162 23.6041 571.562 13.1041C588.162 7.40408 598.662 5.90408 621.562 6.00408C640.362 6.00408 642.062 6.20408 650.362 8.70408C679.162 17.5041 700.662 36.3041 708.662 59.6041C711.562 67.9041 712.862 82.5041 711.262 89.0041C710.462 92.6041 710.662 93.6041 712.762 97.0041C719.062 107.304 721.062 126.004 717.262 137.704L715.362 143.304L722.962 144.104C735.962 145.504 770.362 144.904 783.562 143.004C818.862 138.104 878.162 123.104 877.262 119.404C877.062 118.604 876.262 115.604 875.462 112.504C874.662 109.504 874.062 102.704 874.062 97.4041C874.062 82.1041 877.962 70.4041 885.862 62.6041C892.262 56.2041 897.762 54.0041 908.062 54.0041C916.762 54.0041 921.162 55.1041 926.362 58.7041L929.162 60.6041L936.862 52.7041C949.262 40.1041 969.762 27.4041 981.662 24.9041C990.962 22.9041 999.262 23.0041 1010.26 25.3041C1015.36 26.3041 1023.36 27.7041 1028.06 28.3041C1034.86 29.2041 1038.56 30.4041 1046.86 34.4041C1064.46 43.0041 1074.76 55.6041 1079.76 74.4041C1082.46 84.7041 1081.96 106.304 1078.76 117.904C1077.36 122.804 1076.46 127.204 1076.76 127.604C1076.96 128.104 1088.36 128.404 1101.96 128.404C1128.46 128.404 1149.76 126.804 1169.56 123.404C1176.16 122.204 1182.96 121.004 1184.66 120.704L1187.76 120.204L1186.26 115.204C1185.26 111.704 1184.96 107.004 1185.26 100.004C1185.56 90.9041 1185.96 89.3041 1188.66 84.4041C1191.96 78.5041 1198.46 73.3041 1204.86 71.4041C1210.96 69.6041 1226.06 69.0041 1232.26 70.3041C1239.16 71.8041 1245.66 76.3041 1247.66 80.9041C1249.86 86.4041 1249.46 96.0041 1246.66 102.104C1242.26 111.404 1234.26 117.704 1217.86 124.404L1208.96 128.104L1213.86 131.804C1223.76 139.004 1234.86 142.404 1248.66 142.404C1253.66 142.404 1259.86 142.104 1262.26 141.804L1266.76 141.204L1262.46 132.704C1257.36 122.604 1256.06 117.204 1256.06 105.404C1256.06 90.6041 1260.36 80.1041 1270.26 70.7041C1279.56 62.0041 1289.16 58.4041 1303.06 58.4041C1314.76 58.4041 1320.16 60.3041 1326.86 67.1041C1335.06 75.3041 1336.56 79.4041 1336.56 94.4041C1336.56 106.104 1336.36 107.304 1333.66 112.904C1330.06 120.404 1315.16 135.404 1306.26 140.404C1302.86 142.304 1300.06 144.204 1300.06 144.604C1299.96 147.104 1334.76 146.704 1358.56 143.904C1420.96 136.704 1477.66 125.304 1506.06 114.404C1512.76 111.804 1514.06 110.904 1513.46 109.604C1513.06 108.604 1512.56 103.804 1512.26 98.8041C1511.96 91.6041 1512.26 89.0041 1513.56 86.3041C1516.66 80.2041 1520.16 76.4041 1525.36 73.4041C1530.06 70.7041 1531.46 70.4041 1539.36 70.4041C1549.66 70.4041 1553.76 71.8041 1557.16 76.5041C1559.16 79.3041 1559.56 81.1041 1559.56 87.0041C1559.56 93.1041 1559.16 94.7041 1556.56 99.0041C1554.76 101.904 1550.86 105.904 1546.76 108.904L1540.06 113.904L1543.36 115.304C1549.26 117.804 1568.76 121.204 1583.26 122.304C1614.76 124.604 1681.56 125.704 1758.36 125.004C1800.86 124.704 1841.56 124.104 1848.96 123.804L1862.46 123.204L1854.76 120.304C1850.46 118.804 1845.36 116.504 1843.46 115.304C1840.16 113.304 1839.96 112.904 1840.26 108.504C1840.56 104.004 1840.56 103.904 1844.36 103.604C1846.96 103.404 1851.36 104.504 1858.36 107.204C1869.26 111.404 1881.16 115.004 1895.56 118.404C1900.46 119.504 1904.86 121.004 1905.26 121.704C1906.46 123.604 1906.16 131.104 1904.86 132.104C1904.16 132.604 1899.56 134.804 1894.56 136.904C1883.56 141.604 1870.76 148.304 1861.86 154.004C1851.26 160.804 1845.46 163.404 1841.06 163.404H1836.96L1837.26 158.204L1837.56 152.904L1850.06 144.504L1862.56 136.204L1847.06 136.804C1785.46 139.204 1630.26 138.304 1585.56 135.304C1559.76 133.604 1540.86 130.104 1529.26 124.904L1523.56 122.304L1512.76 126.404C1493.76 133.604 1470.86 139.204 1436.36 145.304C1361.46 158.604 1302.06 162.004 1283.86 154.204C1279.26 152.204 1278.26 152.204 1271.26 153.204C1260.06 155.004 1236.56 154.704 1227.26 152.804C1216.86 150.704 1207.16 145.404 1199.76 137.904L1193.76 131.904L1182.66 134.104C1160.26 138.504 1146.26 139.604 1108.06 140.104C1082.06 140.404 1071.16 140.904 1070.16 141.704C1069.36 142.404 1066.86 145.404 1064.66 148.404C1049.56 168.904 1035.76 179.404 1016.06 185.604C1009.26 187.704 1006.76 187.904 989.562 187.904C971.362 187.904 970.262 187.804 962.562 185.104C958.162 183.504 952.062 180.704 949.062 178.904C942.662 175.004 931.762 164.004 927.562 157.104C925.162 153.304 923.762 152.104 920.562 151.304C904.962 147.004 895.762 142.604 889.062 136.104L884.662 131.904L872.162 136.104C841.162 146.504 800.162 154.504 768.962 156.304C754.562 157.104 730.062 156.504 714.862 154.804L708.262 154.104L702.562 158.804C691.362 167.904 680.862 172.604 666.562 175.004C661.662 175.804 656.562 176.704 655.362 176.904C654.162 177.204 650.562 179.704 647.362 182.504C625.462 201.804 600.062 210.104 571.862 207.504C545.362 205.004 526.962 192.204 514.062 167.404L509.562 158.604L503.562 161.004C486.562 168.004 462.162 173.104 419.562 178.604C406.862 180.204 395.962 180.704 366.562 181.104L329.562 181.604L320.562 190.304C306.862 203.504 295.762 210.204 280.562 214.504C272.462 216.804 257.962 217.504 240.062 216.404C234.862 216.104 231.862 216.604 225.062 218.904C216.962 221.704 215.662 221.804 197.062 222.004C180.662 222.204 176.262 222.604 169.562 224.404C160.662 226.804 142.562 227.804 134.862 226.404ZM142.162 206.904C130.962 200.004 118.962 190.204 111.462 181.904L104.662 174.504L99.862 177.204C97.262 178.704 95.062 180.304 95.062 180.804C95.062 182.704 101.362 191.404 105.262 194.904C115.562 204.204 132.062 211.004 145.562 211.304L149.462 211.404L142.162 206.904ZM213.362 209.304C218.662 208.104 219.062 207.304 215.662 205.104C213.462 203.604 213.062 203.804 207.462 207.504C200.962 212.004 201.062 212.004 213.362 209.304ZM182.962 204.404C186.162 202.804 191.162 199.304 194.062 196.704L199.362 191.804L194.062 184.904C188.862 178.104 181.062 163.204 181.062 160.104C181.062 158.204 179.062 156.604 172.762 153.704C165.762 150.404 158.262 144.604 154.562 139.604C152.962 137.304 151.362 135.404 151.062 135.404C150.762 135.404 149.362 137.304 147.862 139.704C142.362 148.404 128.062 161.704 118.362 167.304C116.762 168.204 117.362 169.104 123.062 174.904C130.362 182.404 141.562 191.204 150.862 196.804C158.762 201.604 171.862 207.304 174.862 207.404C176.062 207.404 179.762 206.104 182.962 204.404ZM273.062 203.304C277.162 202.204 284.162 199.504 288.662 197.304C296.762 193.304 310.562 182.904 310.262 180.904C310.162 180.404 304.662 179.204 298.062 178.204C291.362 177.304 285.062 176.204 284.062 175.904C282.662 175.404 281.462 176.304 279.362 179.104C274.062 186.504 266.862 194.204 260.462 199.504C255.962 203.204 254.462 205.004 255.262 205.604C256.962 206.604 263.662 205.804 273.062 203.304ZM242.362 196.204C245.762 194.004 253.062 187.604 258.562 182.104L268.562 172.104L263.062 170.204C260.062 169.204 254.862 168.104 251.562 167.704L245.562 167.204L240.262 175.204C237.362 179.704 232.562 186.004 229.562 189.204L224.162 195.104L228.862 197.704C231.462 199.204 234.162 200.404 234.862 200.404C235.562 200.404 238.962 198.504 242.362 196.204ZM595.962 194.404C606.362 192.304 622.262 185.004 629.862 179.004L634.062 175.604L626.562 173.904C616.362 171.704 604.362 165.504 597.062 158.804L591.162 153.304L584.862 155.004C580.262 156.304 574.862 156.804 565.062 156.704C551.262 156.704 544.762 155.504 532.862 150.804C528.362 149.104 527.962 149.104 524.562 150.704L521.062 152.404L524.662 159.604C533.662 177.704 547.962 189.304 567.362 194.404C576.662 196.804 584.262 196.804 595.962 194.404ZM211.262 176.104C213.462 172.504 218.062 162.304 218.062 160.904C218.062 160.604 212.862 160.404 206.562 160.404C200.262 160.404 195.062 160.604 195.062 160.904C195.062 163.504 206.162 180.404 207.862 180.404C208.262 180.404 209.762 178.504 211.262 176.104ZM1005.46 174.404C1021.36 170.404 1039.86 158.104 1049.66 145.104L1054.26 138.904L1043.46 137.704C1037.46 137.004 1027.96 135.704 1022.26 134.904L1011.96 133.504L1006.96 136.504C992.962 145.204 972.062 151.204 953.262 152.104L940.962 152.704L945.962 157.804C960.962 173.004 984.862 179.704 1005.46 174.404ZM327.162 159.304C336.462 140.504 336.762 122.404 328.062 105.504C326.462 102.404 324.062 98.6041 322.762 97.0041L320.362 94.1041L319.762 103.004C318.462 120.904 314.462 129.304 296.962 150.904C292.562 156.404 288.662 163.304 289.462 164.104C290.162 164.904 298.162 166.304 309.562 167.804C317.362 168.804 319.962 168.804 321.562 167.904C322.562 167.204 325.162 163.404 327.162 159.304ZM94.062 165.904L97.062 164.404L93.862 158.604C92.062 155.504 89.362 149.504 87.862 145.404L85.162 137.904V143.004C85.062 151.304 88.362 167.404 90.162 167.404C90.662 167.404 92.462 166.704 94.062 165.904ZM649.062 160.404C652.262 156.404 658.062 145.704 658.062 143.804C658.062 143.304 656.262 141.904 654.162 140.804C650.762 139.104 649.162 138.904 643.362 139.604C639.662 140.004 632.262 140.104 626.962 139.704C616.562 139.104 613.462 139.904 607.662 145.104L604.662 147.604L608.162 150.504C613.262 154.804 625.062 160.404 633.262 162.504C644.262 165.204 645.362 165.004 649.062 160.404ZM674.262 159.404C680.862 156.904 688.462 152.304 687.362 151.504C686.562 150.704 670.862 147.204 670.562 147.704C670.462 147.804 669.462 150.404 668.362 153.404C667.262 156.404 665.962 159.704 665.562 160.804C664.662 162.904 665.262 162.804 674.262 159.404ZM116.562 152.104C130.762 142.604 142.762 126.404 143.862 115.204C144.762 105.604 138.462 95.5041 128.962 91.5041C124.162 89.4041 123.662 89.4041 118.762 90.8041C106.062 94.5041 93.062 107.004 93.062 115.504C93.062 121.304 96.962 135.304 101.262 144.404C106.262 155.204 107.862 157.604 109.362 156.804C110.062 156.404 113.262 154.304 116.562 152.104ZM264.162 154.004C271.162 151.804 280.862 146.604 282.462 144.104C283.862 141.804 286.562 128.504 285.662 127.704C285.462 127.404 284.462 128.404 283.462 129.804C280.862 133.904 267.562 144.104 259.962 148.004C256.162 149.904 253.062 151.804 253.062 152.304C253.062 153.104 256.862 155.204 258.562 155.304C259.162 155.404 261.662 154.804 264.162 154.004ZM206.662 143.204C203.662 137.204 203.562 136.404 203.562 124.204C203.562 117.204 203.262 111.404 202.962 111.404C201.362 111.404 194.562 120.104 192.362 125.004C189.362 131.704 188.062 144.304 190.262 146.104C191.862 147.504 199.862 149.104 205.662 149.304L209.762 149.404L206.662 143.204ZM580.362 143.304C584.162 142.104 584.162 142.004 583.562 138.004C582.262 129.304 581.862 128.504 577.562 125.104C566.362 116.404 560.262 104.804 559.362 90.4041C559.062 85.7041 559.362 79.2041 559.962 75.9041C562.462 62.6041 571.762 49.8041 582.762 44.6041C587.762 42.3041 589.862 41.9041 598.062 41.9041C606.362 41.9041 608.262 42.2041 613.062 44.6041C623.962 50.0041 634.062 63.2041 637.062 76.1041C638.162 80.9041 638.562 81.4041 641.762 82.3041C645.062 83.2041 645.662 83.0041 649.362 79.9041C654.962 75.1041 660.762 73.4041 671.562 73.4041C682.062 73.4041 688.462 75.0041 695.362 79.3041L700.062 82.4041V78.3041C700.062 68.4041 692.162 52.5041 682.162 42.4041C663.662 23.8041 636.562 13.8041 611.362 16.4041C576.462 20.0041 551.162 32.6041 533.062 55.3041C528.362 61.3041 520.062 74.8041 520.062 76.5041C520.062 76.7041 523.762 76.9041 528.362 76.9041C538.062 77.0041 541.062 78.3041 546.862 84.9041C552.762 91.6041 554.462 97.4041 553.862 109.804C553.362 121.004 551.262 126.604 544.562 134.804C542.662 137.204 541.062 139.404 541.062 139.704C541.062 140.204 550.362 143.504 555.562 144.804C558.962 145.704 576.362 144.604 580.362 143.304ZM241.462 140.604C242.262 139.104 243.362 135.204 243.962 131.904C245.062 125.904 245.462 107.204 244.562 106.204C244.262 105.904 242.362 106.304 240.262 107.004C238.262 107.704 234.662 108.304 232.362 108.404C230.062 108.404 227.962 108.804 227.662 109.204C227.362 109.704 228.262 113.204 229.562 117.104C230.962 120.904 232.262 127.404 232.662 131.504C232.962 135.604 233.962 139.904 234.662 141.204C236.662 144.204 239.662 144.004 241.462 140.604ZM178.062 137.104C178.062 130.904 181.462 118.204 184.562 113.004C188.462 106.404 195.262 100.604 199.962 99.8041L203.862 99.2041L201.462 94.6041C199.462 90.9041 199.062 88.6041 199.062 82.0041C199.062 75.1041 199.462 73.0041 202.062 67.6041C205.462 60.3041 205.162 59.9041 197.062 60.6041C189.662 61.3041 179.562 66.8041 172.462 73.9041C164.362 81.9041 157.062 96.4041 156.362 105.804C155.662 113.804 157.762 121.204 162.762 128.404C166.162 133.204 175.262 141.404 177.362 141.404C177.762 141.404 178.062 139.404 178.062 137.104ZM952.162 140.304C966.062 138.504 990.062 131.604 990.062 129.404C990.062 129.004 988.862 128.304 987.362 128.004C968.362 123.504 949.862 114.404 936.462 102.904L932.262 99.3041L931.062 108.104C930.062 115.004 930.062 118.804 930.962 125.804C933.062 141.704 934.462 142.604 952.162 140.304ZM703.162 136.804C706.762 130.904 708.062 123.404 706.662 117.104C704.562 108.004 703.962 107.704 699.862 113.304C695.262 119.504 689.262 124.304 679.562 129.804L671.962 134.204L675.762 135.504C680.862 137.204 694.962 140.204 698.262 140.304C700.262 140.404 701.462 139.504 703.162 136.804ZM919.262 127.704C918.862 111.704 919.462 112.804 912.562 117.504C909.262 119.704 904.862 122.404 902.762 123.504C898.962 125.504 898.962 125.604 900.662 127.504C902.262 129.204 917.262 137.404 918.962 137.404C919.262 137.404 919.462 133.004 919.262 127.704ZM1290.06 133.504C1309.26 124.204 1325.26 106.304 1325.26 94.1041C1325.16 83.7041 1315.86 72.7041 1304.96 70.1041C1301.46 69.2041 1292.66 71.9041 1286.86 75.6041C1280.36 79.7041 1275.86 85.0041 1271.96 93.0041C1269.06 98.9041 1268.56 101.004 1268.56 107.404C1268.56 113.404 1269.06 116.004 1271.16 120.404C1273.96 126.304 1281.46 136.404 1283.06 136.404C1283.56 136.404 1286.76 135.104 1290.06 133.504ZM261.962 131.004C268.362 126.204 275.362 118.804 278.462 113.204L281.162 108.504L278.262 104.104C273.162 96.8041 263.662 89.4041 259.262 89.4041C258.862 89.4041 257.662 91.0041 256.762 93.0041C255.162 96.2041 255.162 97.7041 256.162 107.204C256.762 113.104 257.062 121.604 256.662 126.204C256.362 130.704 256.362 134.404 256.662 134.404C257.062 134.404 259.362 132.904 261.962 131.004ZM539.062 118.704C541.762 114.204 542.462 112.104 542.462 108.004C542.462 101.804 539.662 96.0041 534.562 91.6041C530.262 87.8041 526.662 87.5041 522.262 90.7041C509.762 100.004 509.762 113.804 522.162 126.904L527.462 132.504L531.562 128.404C533.762 126.204 537.162 121.904 539.062 118.704ZM302.562 119.004C308.862 106.204 310.662 91.0041 306.462 84.7041C305.262 82.8041 294.362 78.4041 290.962 78.4041C290.562 78.4041 290.862 80.1041 291.762 82.2041C292.662 84.3041 293.662 91.1041 294.162 97.9041C294.562 104.504 295.362 111.704 295.962 113.904C296.562 116.104 297.062 120.404 297.062 123.404C297.062 129.704 297.462 129.504 302.562 119.004ZM638.262 127.804C638.562 127.504 637.962 125.104 636.962 122.304C635.862 119.604 635.062 116.404 635.062 115.104C635.062 113.504 634.462 114.104 633.062 117.204C631.962 119.604 630.162 122.704 629.062 124.104C627.962 125.504 627.062 127.104 627.062 127.504C627.062 128.504 637.362 128.804 638.262 127.804ZM1063.26 122.304C1066.86 114.504 1069.46 102.204 1069.46 92.4041C1069.36 84.6041 1068.96 81.7041 1066.76 76.2041C1061.46 62.4041 1052.26 51.9041 1039.86 45.5041C1033.56 42.3041 1031.66 42.1041 1034.26 45.1041C1036.66 47.8041 1040.66 56.3041 1042.46 62.3041C1044.46 69.2041 1044.56 86.9041 1042.56 94.3041C1040.66 101.704 1036.56 109.404 1030.86 116.504C1028.16 119.904 1026.06 122.704 1026.26 122.904C1027.06 123.604 1051.16 126.204 1056.06 126.104C1061.36 125.904 1061.66 125.804 1063.26 122.304ZM615.162 120.204C617.362 117.404 620.262 112.904 621.562 110.404C624.162 105.304 627.562 94.5041 626.762 93.8041C625.662 92.7041 611.362 100.304 606.962 104.204C601.562 109.004 595.562 117.804 596.362 119.804C596.862 121.004 606.762 125.104 609.762 125.304C610.462 125.404 612.862 123.104 615.162 120.204ZM657.862 124.504C658.862 123.904 658.762 122.604 657.162 118.304C654.762 112.004 649.562 103.404 648.162 103.404C646.562 103.404 645.762 110.004 646.962 113.704C648.062 117.004 654.462 125.404 655.862 125.404C656.262 125.404 657.162 125.004 657.862 124.504ZM1015.86 111.604C1028.26 99.0041 1034.06 85.3041 1031.96 73.5041C1030.16 64.0041 1024.66 54.0041 1017.06 46.3041C1013.26 42.5041 1008.96 39.2041 1007.36 38.8041C1004.06 37.9041 986.262 40.7041 978.762 43.3041C967.862 47.1041 960.662 51.5041 953.062 59.3041C944.762 67.6041 937.462 79.7041 938.662 83.1041C942.062 92.4041 961.662 105.704 982.462 112.804C991.162 115.804 1003.56 119.204 1006.36 119.304C1007.46 119.404 1011.56 116.004 1015.86 111.604ZM676.662 115.804C681.962 112.304 686.362 108.004 691.362 101.504L695.462 96.1041L692.162 93.3041C690.362 91.8041 685.862 89.1041 682.362 87.4041C674.362 83.4041 667.962 83.5041 660.762 87.7041L656.162 90.5041L659.662 95.1041C663.162 99.7041 669.062 110.504 669.062 112.304C669.062 114.204 671.062 118.404 671.862 118.404C672.362 118.404 674.562 117.204 676.662 115.804ZM1210.16 113.104C1221.06 108.804 1229.26 103.504 1233.06 98.2041C1238.76 90.4041 1238.06 87.1041 1230.36 83.3041C1222.16 79.3041 1210.16 81.3041 1203.26 87.7041C1199.46 91.2041 1196.76 97.4041 1196.76 102.404C1196.66 106.204 1200.06 116.404 1201.36 116.404C1201.56 116.404 1205.46 114.904 1210.16 113.104ZM895.962 111.804C903.562 107.404 913.862 99.5041 917.562 95.2041C920.662 91.5041 922.862 86.4041 924.462 79.2041C925.762 73.5041 914.362 64.7041 907.062 65.7041C894.562 67.3041 885.262 82.5041 886.262 99.3041C886.762 106.404 889.062 114.404 890.662 114.404C891.062 114.404 893.462 113.204 895.962 111.804ZM587.462 107.104C593.862 95.8041 608.562 84.8041 620.162 82.9041C622.362 82.5041 624.462 81.6041 624.762 80.8041C625.762 78.3041 619.862 68.0041 614.162 62.4041C602.162 50.5041 593.562 50.3041 581.662 61.9041C576.462 66.9041 572.562 74.3041 571.062 82.2041C569.462 90.7041 572.862 100.604 580.362 109.104C581.962 110.904 583.562 112.404 583.962 112.404C584.262 112.404 585.862 110.004 587.462 107.104ZM1538.66 97.1041C1543.76 93.2041 1547.46 88.0041 1546.66 85.9041C1545.76 83.4041 1540.06 81.4041 1537.06 82.6041C1532.56 84.3041 1527.96 88.5041 1525.76 93.0041C1523.76 97.2041 1523.76 97.5041 1525.36 101.004L1527.06 104.604L1530.86 102.404C1532.86 101.204 1536.46 98.8041 1538.66 97.1041ZM228.562 81.0041C231.562 79.6041 231.962 79.0041 231.062 77.4041C229.962 75.4041 222.862 69.3041 219.362 67.5041C217.562 66.6041 216.962 66.8041 215.162 69.0041C212.462 72.4041 209.762 81.0041 210.462 83.8041C210.762 85.0041 211.962 87.3041 213.162 88.8041L215.262 91.4041L220.062 87.0041C222.762 84.6041 226.562 81.9041 228.562 81.0041ZM149.962 83.9041C154.462 73.8041 163.062 63.3041 171.962 57.1041C179.862 51.7041 186.662 50.2041 202.562 50.5041C215.562 50.7041 216.962 50.6041 221.562 48.4041C225.262 46.6041 228.762 45.9041 234.862 45.6041C239.362 45.4041 243.062 44.8041 243.062 44.4041C243.062 42.7041 234.062 31.6041 229.562 27.7041C225.562 24.3041 223.662 23.5041 217.962 22.5041C192.962 18.4041 161.562 26.3041 138.262 42.7041C129.862 48.5041 118.062 60.2041 111.662 68.9041C106.162 76.2041 102.062 82.7041 102.062 83.8041C102.062 84.1041 103.962 83.4041 106.362 82.2041C109.662 80.5041 112.762 79.9041 120.862 79.6041C132.362 79.1041 136.862 80.3041 143.662 85.4041C145.862 87.0041 147.662 88.4041 147.762 88.4041C147.862 88.4041 148.862 86.4041 149.962 83.9041ZM276.462 81.6041C275.162 79.4041 274.262 78.8041 272.362 79.2041C269.962 79.6041 270.062 79.7041 273.762 81.9041C275.862 83.2041 277.662 84.3041 277.862 84.3041C278.062 84.4041 277.462 83.1041 276.462 81.6041ZM248.862 74.2041C250.262 72.8041 250.462 63.6041 249.062 60.0041C247.762 56.4041 241.462 54.9041 234.762 56.5041L229.662 57.7041L234.362 61.6041C236.962 63.8041 240.662 67.8041 242.662 70.5041C246.462 75.7041 246.962 76.1041 248.862 74.2041ZM263.562 67.4041C261.562 65.2041 260.462 65.4041 261.362 67.9041C261.762 68.7041 262.762 69.4041 263.662 69.4041C265.262 69.4041 265.262 69.2041 263.562 67.4041ZM298.562 65.7041C290.562 53.2041 273.262 40.0041 255.862 32.9041L250.262 30.6041L253.662 36.2041C255.462 39.3041 257.262 43.1041 257.662 44.6041C258.062 46.7041 259.962 48.6041 264.862 51.9041C268.562 54.3041 274.062 58.6041 277.062 61.5041C282.962 67.2041 281.662 66.8041 298.462 68.2041C300.262 68.4041 300.262 68.3041 298.562 65.7041ZM134.962 29.4041C146.862 21.4041 162.362 15.6041 180.562 12.2041L190.562 10.4041L181.962 10.8041C167.562 11.6041 153.262 16.0041 140.062 23.8041C131.862 28.6041 118.662 39.3041 117.662 41.9041C117.362 42.8041 119.662 41.3041 122.862 38.6041C125.962 35.9041 131.462 31.8041 134.962 29.4041Z" fill="black"/>
</svg> 